<mxfile host="app.diagrams.net" modified="2021-03-29T16:20:07.584Z" agent="5.0 (Windows NT 10.0; Win64; x64) AppleWebKit/537.36 (KHTML, like Gecko) Chrome/89.0.4389.90 Safari/537.36" etag="CGl7SsC1gBh0aDZVy1G-" version="14.5.3" type="github">
  <diagram name="Page-1" id="efa7a0a1-bf9b-a30e-e6df-94a7791c09e9">
    <mxGraphModel dx="1021" dy="569" grid="1" gridSize="10" guides="1" tooltips="1" connect="1" arrows="1" fold="1" page="1" pageScale="1" pageWidth="826" pageHeight="1169" background="#ffffff" math="0" shadow="0">
      <root>
        <mxCell id="0" />
        <mxCell id="1" parent="0" />
        <mxCell id="19" value="&lt;pre style=&quot;text-align: center&quot;&gt;&lt;b&gt;ends_full_report_kpi_country_no_part&lt;br&gt;&lt;/b&gt;&lt;/pre&gt;&lt;hr style=&quot;text-align: center&quot;&gt;&lt;pre&gt;&lt;pre&gt;country_code string                  &lt;br/&gt;country_name string                  &lt;br/&gt;mail_type int                        &lt;br/&gt;mail_ctg int                         &lt;br/&gt;kpp string                           &lt;br/&gt;inn string                           &lt;br/&gt;date string                          &lt;br/&gt;delivery_deadline string             &lt;br/&gt;srm int                              &lt;br/&gt;cpacket int                          &lt;br/&gt;plus500 boolean                      &lt;br/&gt;dti string                           &lt;br/&gt;direction string                     &lt;br/&gt;cnt_in bigint                        &lt;br/&gt;cnt_out bigint                       &lt;br/&gt;cnt_internal bigint                  &lt;br/&gt;cnt_in_unknown bigint                &lt;br/&gt;cnt_in_unknown_code bigint           &lt;br/&gt;cnt_in_unknown_index bigint          &lt;br/&gt;cnt_in_delivered bigint              &lt;br/&gt;cnt_shiping_in_intime bigint         &lt;br/&gt;cnt_shiping_in_late bigint           &lt;br/&gt;cnt_in_delivered_late bigint         &lt;br/&gt;cnt_out_unknown bigint               &lt;br/&gt;cnt_out_unknown_code bigint          &lt;br/&gt;cnt_out_unknown_index bigint         &lt;br/&gt;cnt_shiping_out_intime bigint        &lt;br/&gt;cnt_shiping_out_late bigint          &lt;br/&gt;cnt_out_delivered bigint             &lt;br/&gt;cnt_out_delivered_late bigint        &lt;br/&gt;cnt_internal_unknown bigint          &lt;br/&gt;cnt_internal_unknown_code bigint     &lt;br/&gt;cnt_internal_unknown_index bigint    &lt;br/&gt;cnt_shiping_internal_intime bigint   &lt;br/&gt;cnt_shiping_internal_late bigint     &lt;br/&gt;cnt_internal_delivered bigint        &lt;br/&gt;cnt_internal_delivered_late bigint&lt;br/&gt;year int&lt;br&gt;&lt;/pre&gt;&lt;pre&gt;   &lt;/pre&gt;&lt;/pre&gt;" style="verticalAlign=top;align=left;overflow=fill;fontSize=12;fontFamily=Helvetica;html=1;strokeColor=#003366;shadow=1;fillColor=#D4E1F5;fontColor=#003366" parent="1" vertex="1">
          <mxGeometry x="350" y="820" width="260" height="590" as="geometry" />
        </mxCell>
        <mxCell id="25" value="&lt;p style=&quot;margin: 0px ; margin-top: 4px ; text-align: center ; text-decoration: underline&quot;&gt;&lt;/p&gt;&lt;p style=&quot;text-align: center ; margin: 0px 0px 0px 8px&quot;&gt;&lt;b&gt;&lt;br&gt;&lt;/b&gt;&lt;/p&gt;&lt;p style=&quot;text-align: center ; margin: 0px 0px 0px 8px&quot;&gt;&lt;b&gt;ends_full_report_kpi_prep&lt;/b&gt;&lt;/p&gt;&lt;p style=&quot;text-align: center ; margin: 0px 0px 0px 8px&quot;&gt;&lt;b&gt;&lt;br&gt;&lt;/b&gt;&lt;/p&gt;&lt;hr id=&quot;null&quot;&gt;&lt;pre&gt;&lt;pre&gt;a_fps_country_code string    &lt;br&gt;d_fps_country_code string    &lt;br&gt;a_fps_macroregion_code string&lt;br&gt;d_fps_macroregion_code string&lt;br&gt;a_fps_ufps_index int         &lt;br&gt;d_fps_ufps_index int         &lt;br&gt;a_fps_ufps varchar(256)      &lt;br&gt;d_fps_ufps varchar(256)      &lt;br&gt;a_fps_post_office_index int  &lt;br&gt;d_fps_post_office_index int  &lt;br&gt;a_fps_post_office varchar(256)&lt;br&gt;d_fps_post_office varchar(256)&lt;br&gt;a_index string               &lt;br&gt;d_index string               &lt;br&gt;a_ops varchar(256)           &lt;br&gt;d_ops varchar(256)           &lt;br&gt;a_date string                &lt;br&gt;d_date string                &lt;br&gt;delivery_deadline string     &lt;br&gt;mail_type int                &lt;br&gt;mail_ctg int                 &lt;br&gt;kpp string                   &lt;br&gt;inn string                   &lt;br&gt;srm int                      &lt;br&gt;dti string                   &lt;br&gt;cpacket int                  &lt;br&gt;from_500_plus boolean        &lt;br&gt;to_500_plus boolean          &lt;br&gt;direction string             &lt;br&gt;shiping_in_time bigint       &lt;br&gt;shiping_late bigint          &lt;br&gt;cnt_unknown_code bigint      &lt;br&gt;cnt_unknown_index bigint     &lt;br&gt;cnt_unknown bigint           &lt;br&gt;cnt_delivered bigint         &lt;br&gt;cnt_delivered_late bigint    &lt;br&gt;cnt bigint                 &lt;/pre&gt;&lt;/pre&gt;" style="verticalAlign=top;align=left;overflow=fill;fontSize=12;fontFamily=Helvetica;html=1;strokeColor=#003366;shadow=1;fillColor=#D4E1F5;fontColor=#003366" parent="1" vertex="1">
          <mxGeometry x="1020" y="130" width="250" height="588.36" as="geometry" />
        </mxCell>
        <mxCell id="j2kU0Gm-pKW_zPL6ewER-115" value="&lt;font style=&quot;font-size: 24px&quot;&gt;Финальные таблицы для построения отчетной таблицы. HIVE Скрипт:&amp;nbsp;01_kpi_alter_report.sql&lt;br&gt;&lt;/font&gt;" style="text;html=1;strokeColor=none;fillColor=none;align=left;verticalAlign=middle;whiteSpace=wrap;rounded=0;fontStyle=1" vertex="1" parent="1">
          <mxGeometry x="70" y="20" width="1160" height="110" as="geometry" />
        </mxCell>
        <mxCell id="j2kU0Gm-pKW_zPL6ewER-119" value="&lt;p style=&quot;margin: 0px ; margin-top: 4px ; text-align: center ; text-decoration: underline&quot;&gt;&lt;/p&gt;&lt;p style=&quot;text-align: center ; margin: 0px 0px 0px 8px&quot;&gt;&lt;b&gt;&lt;br&gt;&lt;/b&gt;&lt;/p&gt;&lt;p style=&quot;text-align: center ; margin: 0px 0px 0px 8px&quot;&gt;&lt;b&gt;ends_full&lt;/b&gt;&lt;/p&gt;&lt;p style=&quot;text-align: center ; margin: 0px 0px 0px 8px&quot;&gt;&lt;b&gt;&lt;br&gt;&lt;/b&gt;&lt;/p&gt;&lt;hr id=&quot;null&quot;&gt;&lt;pre&gt;&lt;pre&gt;&lt;pre&gt;rpoid string&lt;br&gt;mail_type int&lt;br&gt;mail_type_name string&lt;br&gt;mail_ctg int&lt;br&gt;send_ctg int&lt;br&gt;inn string&lt;br&gt;kpp string&lt;br&gt;mass int&lt;br&gt;report_a_index string&lt;br&gt;report_a_post_object varchar(256)&lt;br&gt;report_a_post_office varchar(256)&lt;br&gt;report_a_post_office_index int&lt;br&gt;report_a_ufps varchar(256)&lt;br&gt;report_a_ufps_index int&lt;br&gt;report_a_macroregion_code int&lt;br&gt;report_a_country_code int&lt;br&gt;unknown_object_from string&lt;br&gt;report_d_index string&lt;br&gt;d_index string&lt;br&gt;report_d_post_object varchar(256)&lt;br&gt;report_d_post_office varchar(256)&lt;br&gt;report_d_post_office_index int&lt;br&gt;report_d_ufps varchar(256)&lt;br&gt;report_d_ufps_index int&lt;br&gt;report_d_macroregion_code int&lt;br&gt;report_d_country_code int&lt;br&gt;unknown_object_to string&lt;br&gt;a_date string&lt;br&gt;display_a_date string&lt;br&gt;a_date_local string&lt;br&gt;display_a_date_local string&lt;br&gt;a_oper_type int&lt;br&gt;a_oper_attr int&lt;br&gt;d_date string&lt;br&gt;d_date_local string&lt;br&gt;d_oper_type int&lt;br&gt;d_oper_attr int&lt;br&gt;delivery_time int&lt;br&gt;delivery_term int&lt;br&gt;delivery_deadline string&lt;br&gt;calc_code int&lt;br&gt;oktmo_from bigint&lt;br&gt;reg_center_from bigint&lt;br&gt;distr_center_from bigint&lt;br&gt;oktmo_to bigint&lt;br&gt;reg_center_to bigint&lt;br&gt;distr_center_to bigint&lt;br&gt;country_from string&lt;br&gt;country_to string&lt;br&gt;index_from string&lt;br&gt;index_to string&lt;br&gt;region_from_delivery_term int&lt;br&gt;region_to_delivery_term int&lt;br&gt;srm int&lt;br&gt;dti string&lt;br&gt;cpacket int&lt;br&gt;direction string&lt;br&gt;trans_type int&lt;br&gt;date string&lt;br&gt;delivery_attempt_date_local string&lt;br&gt;state string&lt;br&gt;from_500_plus boolean&lt;br&gt;to_500_plus boolean              &lt;/pre&gt;&lt;/pre&gt;&lt;/pre&gt;" style="verticalAlign=top;align=left;overflow=fill;fontSize=12;fontFamily=Helvetica;html=1;strokeColor=#003366;shadow=1;fillColor=#D4E1F5;fontColor=#003366" vertex="1" parent="1">
          <mxGeometry x="70" y="130" width="230" height="954.18" as="geometry" />
        </mxCell>
        <mxCell id="j2kU0Gm-pKW_zPL6ewER-124" value="Extends" style="endArrow=block;endSize=16;endFill=0;html=1;exitX=1.017;exitY=0.034;exitDx=0;exitDy=0;exitPerimeter=0;entryX=-0.005;entryY=0.055;entryDx=0;entryDy=0;entryPerimeter=0;" edge="1" parent="1" source="j2kU0Gm-pKW_zPL6ewER-119" target="25">
          <mxGeometry x="-0.0376" y="18" width="160" relative="1" as="geometry">
            <mxPoint x="255" y="100" as="sourcePoint" />
            <mxPoint x="350" y="100" as="targetPoint" />
            <mxPoint as="offset" />
          </mxGeometry>
        </mxCell>
        <mxCell id="j2kU0Gm-pKW_zPL6ewER-125" value="Extends" style="endArrow=block;endSize=16;endFill=0;html=1;exitX=0.5;exitY=1;exitDx=0;exitDy=0;entryX=0.5;entryY=0;entryDx=0;entryDy=0;" edge="1" parent="1" source="25" target="19">
          <mxGeometry x="-0.0332" y="-8" width="160" relative="1" as="geometry">
            <mxPoint x="417.4799999999998" y="690.08212" as="sourcePoint" />
            <mxPoint x="492.52" y="689.9997999999998" as="targetPoint" />
            <mxPoint x="1" as="offset" />
          </mxGeometry>
        </mxCell>
        <mxCell id="j2kU0Gm-pKW_zPL6ewER-126" value="&lt;pre&gt;&lt;pre style=&quot;text-align: center&quot;&gt;&lt;b&gt;ends_full_report_kpi_macroregion_no_part&lt;/b&gt;&lt;/pre&gt;&lt;/pre&gt;&lt;hr&gt;&lt;pre&gt;&lt;pre&gt;&lt;pre&gt;country_code string              &lt;br/&gt;macroregion_code string          &lt;br/&gt;macroregion_name string          &lt;br/&gt;mail_type int                    &lt;br/&gt;mail_ctg int                     &lt;br/&gt;kpp string                       &lt;br/&gt;inn string                       &lt;br/&gt;date string                      &lt;br/&gt;delivery_deadline string         &lt;br/&gt;srm int                          &lt;br/&gt;cpacket int                      &lt;br/&gt;plus500 boolean                  &lt;br/&gt;dti string                       &lt;br/&gt;direction string                 &lt;br/&gt;cnt_in bigint                    &lt;br/&gt;cnt_out bigint                   &lt;br/&gt;cnt_internal bigint              &lt;br/&gt;cnt_in_unknown bigint            &lt;br/&gt;cnt_in_unknown_code bigint       &lt;br/&gt;cnt_in_unknown_index bigint      &lt;br/&gt;cnt_in_delivered bigint          &lt;br/&gt;cnt_shiping_in_intime bigint     &lt;br/&gt;cnt_shiping_in_late bigint       &lt;br/&gt;cnt_in_delivered_late bigint     &lt;br/&gt;cnt_out_unknown bigint           &lt;br/&gt;cnt_out_unknown_code bigint      &lt;br/&gt;cnt_out_unknown_index bigint     &lt;br/&gt;cnt_shiping_out_intime bigint    &lt;br/&gt;cnt_shiping_out_late bigint      &lt;br/&gt;cnt_out_delivered bigint         &lt;br/&gt;cnt_out_delivered_late bigint    &lt;br/&gt;cnt_internal_unknown bigint      &lt;br/&gt;cnt_internal_unknown_code bigint &lt;br/&gt;cnt_internal_unknown_index bigint&lt;br/&gt;cnt_shiping_internal_intime bigint&lt;br/&gt;cnt_shiping_internal_late bigint &lt;br/&gt;cnt_internal_delivered bigint    &lt;br/&gt;cnt_internal_delivered_late bigint&lt;br/&gt;year int&lt;br&gt;&lt;/pre&gt;&lt;/pre&gt;&lt;/pre&gt;" style="verticalAlign=top;align=left;overflow=fill;fontSize=12;fontFamily=Helvetica;html=1;strokeColor=#003366;shadow=1;fillColor=#D4E1F5;fontColor=#003366" vertex="1" parent="1">
          <mxGeometry x="650" y="820" width="290" height="610" as="geometry" />
        </mxCell>
        <mxCell id="j2kU0Gm-pKW_zPL6ewER-127" value="Extends" style="endArrow=block;endSize=16;endFill=0;html=1;entryX=0.5;entryY=0;entryDx=0;entryDy=0;exitX=0.5;exitY=1;exitDx=0;exitDy=0;" edge="1" parent="1" source="25" target="j2kU0Gm-pKW_zPL6ewER-126">
          <mxGeometry width="160" relative="1" as="geometry">
            <mxPoint x="480" y="660" as="sourcePoint" />
            <mxPoint x="760" y="542.41" as="targetPoint" />
          </mxGeometry>
        </mxCell>
        <mxCell id="j2kU0Gm-pKW_zPL6ewER-128" value="&lt;pre&gt;&lt;pre style=&quot;text-align: center&quot;&gt;&lt;pre&gt;&lt;b&gt;ends_full_report_kpi_ufps_no_part&lt;/b&gt;&lt;/pre&gt;&lt;/pre&gt;&lt;/pre&gt;&lt;hr&gt;&lt;pre&gt;&lt;pre&gt;&lt;pre&gt;country_code string              &lt;br/&gt;macroregion_code string          &lt;br/&gt;ufps_index int                   &lt;br/&gt;ufps string                      &lt;br/&gt;ufps_index_to int                &lt;br/&gt;ufps_to string                   &lt;br/&gt;ufps_index_from int              &lt;br/&gt;ufps_from string                 &lt;br/&gt;mail_type int                    &lt;br/&gt;mail_ctg int                     &lt;br/&gt;kpp string                       &lt;br/&gt;inn string                       &lt;br/&gt;date string                      &lt;br/&gt;delivery_deadline string         &lt;br/&gt;srm int                          &lt;br/&gt;cpacket int                      &lt;br/&gt;plus500 boolean                  &lt;br/&gt;dti string                       &lt;br/&gt;direction string                 &lt;br/&gt;cnt_in bigint                    &lt;br/&gt;cnt_out bigint                   &lt;br/&gt;cnt_internal bigint              &lt;br/&gt;cnt_in_unknown bigint            &lt;br/&gt;cnt_in_unknown_code bigint       &lt;br/&gt;cnt_in_unknown_index bigint      &lt;br/&gt;cnt_in_delivered bigint          &lt;br/&gt;cnt_shiping_in_intime bigint     &lt;br/&gt;cnt_shiping_in_late bigint       &lt;br/&gt;cnt_in_delivered_late bigint     &lt;br/&gt;cnt_out_unknown bigint           &lt;br/&gt;cnt_out_unknown_code bigint      &lt;br/&gt;cnt_out_unknown_index bigint     &lt;br/&gt;cnt_shiping_out_intime bigint    &lt;br/&gt;cnt_shiping_out_late bigint      &lt;br/&gt;cnt_out_delivered bigint         &lt;br/&gt;cnt_out_delivered_late bigint    &lt;br/&gt;cnt_internal_unknown bigint      &lt;br/&gt;cnt_internal_unknown_code bigint &lt;br/&gt;cnt_internal_unknown_index bigint&lt;br/&gt;cnt_shiping_internal_intime bigint&lt;br/&gt;cnt_shiping_internal_late bigint &lt;br/&gt;cnt_internal_delivered bigint    &lt;br/&gt;cnt_internal_delivered_late bigint&lt;br/&gt;year int&lt;br&gt;&lt;/pre&gt;&lt;/pre&gt;&lt;/pre&gt;" style="verticalAlign=top;align=left;overflow=fill;fontSize=12;fontFamily=Helvetica;html=1;strokeColor=#003366;shadow=1;fillColor=#D4E1F5;fontColor=#003366" vertex="1" parent="1">
          <mxGeometry x="1000" y="820" width="290" height="680" as="geometry" />
        </mxCell>
        <mxCell id="j2kU0Gm-pKW_zPL6ewER-129" value="Extends" style="endArrow=block;endSize=16;endFill=0;html=1;entryX=0.5;entryY=0;entryDx=0;entryDy=0;exitX=0.5;exitY=1;exitDx=0;exitDy=0;" edge="1" parent="1" source="25" target="j2kU0Gm-pKW_zPL6ewER-128">
          <mxGeometry width="160" relative="1" as="geometry">
            <mxPoint x="800" y="664" as="sourcePoint" />
            <mxPoint x="805" y="829.9999999999998" as="targetPoint" />
          </mxGeometry>
        </mxCell>
        <mxCell id="j2kU0Gm-pKW_zPL6ewER-130" value="&lt;pre&gt;&lt;pre style=&quot;text-align: center&quot;&gt;&lt;pre&gt;&lt;pre&gt;&lt;b&gt;ends_full_report_kpi_post_office_no_part&lt;/b&gt;&lt;/pre&gt;&lt;/pre&gt;&lt;/pre&gt;&lt;/pre&gt;&lt;hr&gt;&lt;pre&gt;&lt;pre&gt;&lt;pre&gt;country_code string              &lt;br/&gt;macroregion_code string          &lt;br/&gt;ufps_index int                   &lt;br/&gt;ufps string                      &lt;br/&gt;post_office_index int            &lt;br/&gt;post_office string               &lt;br/&gt;mail_type int                    &lt;br/&gt;mail_ctg int                     &lt;br/&gt;kpp string                       &lt;br/&gt;inn string                       &lt;br/&gt;date string                      &lt;br/&gt;delivery_deadline string         &lt;br/&gt;srm int                          &lt;br/&gt;cpacket int                      &lt;br/&gt;plus500 boolean                  &lt;br/&gt;dti string                       &lt;br/&gt;direction string                 &lt;br/&gt;cnt_in bigint                    &lt;br/&gt;cnt_out bigint                   &lt;br/&gt;cnt_internal bigint              &lt;br/&gt;cnt_in_unknown bigint            &lt;br/&gt;cnt_in_unknown_code bigint       &lt;br/&gt;cnt_in_unknown_index bigint      &lt;br/&gt;cnt_in_delivered bigint          &lt;br/&gt;cnt_shiping_in_intime bigint     &lt;br/&gt;cnt_shiping_in_late bigint       &lt;br/&gt;cnt_in_delivered_late bigint     &lt;br/&gt;cnt_out_unknown bigint           &lt;br/&gt;cnt_out_unknown_code bigint      &lt;br/&gt;cnt_out_unknown_index bigint     &lt;br/&gt;cnt_shiping_out_intime bigint    &lt;br/&gt;cnt_shiping_out_late bigint      &lt;br/&gt;cnt_out_delivered bigint         &lt;br/&gt;cnt_out_delivered_late bigint    &lt;br/&gt;cnt_internal_unknown bigint      &lt;br/&gt;cnt_internal_unknown_code bigint &lt;br/&gt;cnt_internal_unknown_index bigint&lt;br/&gt;cnt_shiping_internal_intime bigint&lt;br/&gt;cnt_shiping_internal_late bigint &lt;br/&gt;cnt_internal_delivered bigint    &lt;br/&gt;cnt_internal_delivered_late bigint&lt;br/&gt;year int&lt;br&gt;&lt;/pre&gt;&lt;/pre&gt;&lt;/pre&gt;" style="verticalAlign=top;align=left;overflow=fill;fontSize=12;fontFamily=Helvetica;html=1;strokeColor=#003366;shadow=1;fillColor=#D4E1F5;fontColor=#003366" vertex="1" parent="1">
          <mxGeometry x="1350" y="820" width="290" height="650" as="geometry" />
        </mxCell>
        <mxCell id="j2kU0Gm-pKW_zPL6ewER-131" value="&lt;pre&gt;&lt;pre style=&quot;text-align: center&quot;&gt;&lt;pre&gt;&lt;pre&gt;&lt;pre&gt;&lt;b&gt;ends_full_report_kpi_index_no_part&lt;/b&gt;&lt;/pre&gt;&lt;/pre&gt;&lt;/pre&gt;&lt;/pre&gt;&lt;/pre&gt;&lt;hr&gt;&lt;pre&gt;&lt;pre&gt;&lt;pre&gt;country_code string              &lt;br/&gt;macroregion_code string          &lt;br/&gt;ufps_index int                   &lt;br/&gt;ufps string                      &lt;br/&gt;post_office_index int            &lt;br/&gt;post_office string               &lt;br/&gt;index string                     &lt;br/&gt;ops string                       &lt;br/&gt;mail_type int                    &lt;br/&gt;mail_ctg int                     &lt;br/&gt;kpp string                       &lt;br/&gt;inn string                       &lt;br/&gt;date string                      &lt;br/&gt;delivery_deadline string         &lt;br/&gt;srm int                          &lt;br/&gt;cpacket int                      &lt;br/&gt;plus500 boolean                  &lt;br/&gt;dti string                       &lt;br/&gt;direction string                 &lt;br/&gt;cnt_in bigint                    &lt;br/&gt;cnt_out bigint                   &lt;br/&gt;cnt_internal bigint              &lt;br/&gt;cnt_in_unknown bigint            &lt;br/&gt;cnt_in_unknown_code bigint       &lt;br/&gt;cnt_in_unknown_index bigint      &lt;br/&gt;cnt_in_delivered bigint          &lt;br/&gt;cnt_shiping_in_intime bigint     &lt;br/&gt;cnt_shiping_in_late bigint       &lt;br/&gt;cnt_in_delivered_late bigint     &lt;br/&gt;cnt_out_unknown bigint           &lt;br/&gt;cnt_out_unknown_code bigint      &lt;br/&gt;cnt_out_unknown_index bigint     &lt;br/&gt;cnt_shiping_out_intime bigint    &lt;br/&gt;cnt_shiping_out_late bigint      &lt;br/&gt;cnt_out_delivered bigint         &lt;br/&gt;cnt_out_delivered_late bigint    &lt;br/&gt;cnt_internal_unknown bigint      &lt;br/&gt;cnt_internal_unknown_code bigint &lt;br/&gt;cnt_internal_unknown_index bigint&lt;br/&gt;cnt_shiping_internal_intime bigint&lt;br/&gt;cnt_shiping_internal_late bigint &lt;br/&gt;cnt_internal_delivered bigint    &lt;br/&gt;cnt_internal_delivered_late bigint&lt;br/&gt;year int&lt;br&gt;&lt;/pre&gt;&lt;/pre&gt;&lt;/pre&gt;" style="verticalAlign=top;align=left;overflow=fill;fontSize=12;fontFamily=Helvetica;html=1;strokeColor=#003366;shadow=1;fillColor=#D4E1F5;fontColor=#003366" vertex="1" parent="1">
          <mxGeometry x="1690" y="820" width="290" height="680" as="geometry" />
        </mxCell>
        <mxCell id="j2kU0Gm-pKW_zPL6ewER-132" value="Extends" style="endArrow=block;endSize=16;endFill=0;html=1;entryX=0.5;entryY=0;entryDx=0;entryDy=0;exitX=0.5;exitY=1;exitDx=0;exitDy=0;" edge="1" parent="1" source="25" target="j2kU0Gm-pKW_zPL6ewER-130">
          <mxGeometry width="160" relative="1" as="geometry">
            <mxPoint x="1145" y="650" as="sourcePoint" />
            <mxPoint x="1155" y="830" as="targetPoint" />
          </mxGeometry>
        </mxCell>
        <mxCell id="j2kU0Gm-pKW_zPL6ewER-133" value="Extends" style="endArrow=block;endSize=16;endFill=0;html=1;entryX=0.5;entryY=0;entryDx=0;entryDy=0;exitX=0.5;exitY=1;exitDx=0;exitDy=0;" edge="1" parent="1" source="25" target="j2kU0Gm-pKW_zPL6ewER-131">
          <mxGeometry width="160" relative="1" as="geometry">
            <mxPoint x="1155" y="664.1799999999998" as="sourcePoint" />
            <mxPoint x="1505" y="830" as="targetPoint" />
          </mxGeometry>
        </mxCell>
        <mxCell id="j2kU0Gm-pKW_zPL6ewER-134" value="&lt;font style=&quot;font-size: 24px&quot;&gt;Финальные таблицы в VERTICA. Скрипт:&amp;nbsp;00_kpi_init.sql,&amp;nbsp;00_kpi_update.sql и&amp;nbsp;01_kpi_load.sh&lt;br&gt;&lt;/font&gt;" style="text;html=1;strokeColor=none;fillColor=none;align=left;verticalAlign=middle;whiteSpace=wrap;rounded=0;fontStyle=1" vertex="1" parent="1">
          <mxGeometry x="71" y="1580" width="1129" height="110" as="geometry" />
        </mxCell>
        <mxCell id="j2kU0Gm-pKW_zPL6ewER-136" value="&lt;pre style=&quot;text-align: center&quot;&gt;&lt;b&gt;ends_full_report_kpi_country&lt;br&gt;&lt;/b&gt;&lt;/pre&gt;&lt;hr style=&quot;text-align: center&quot;&gt;&lt;pre&gt;&lt;pre&gt;country_code string                  &lt;br&gt;country_name string                  &lt;br&gt;mail_type int                        &lt;br&gt;mail_ctg int                         &lt;br&gt;kpp string                           &lt;br&gt;inn string                           &lt;br&gt;date string                          &lt;br&gt;delivery_deadline string             &lt;br&gt;srm int                              &lt;br&gt;cpacket int                          &lt;br&gt;plus500 boolean                      &lt;br&gt;dti string                           &lt;br&gt;direction string                     &lt;br&gt;cnt_in bigint                        &lt;br&gt;cnt_out bigint                       &lt;br&gt;cnt_internal bigint                  &lt;br&gt;cnt_in_unknown bigint                &lt;br&gt;cnt_in_unknown_code bigint           &lt;br&gt;cnt_in_unknown_index bigint          &lt;br&gt;cnt_in_delivered bigint              &lt;br&gt;cnt_shiping_in_intime bigint         &lt;br&gt;cnt_shiping_in_late bigint           &lt;br&gt;cnt_in_delivered_late bigint         &lt;br&gt;cnt_out_unknown bigint               &lt;br&gt;cnt_out_unknown_code bigint          &lt;br&gt;cnt_out_unknown_index bigint         &lt;br&gt;cnt_shiping_out_intime bigint        &lt;br&gt;cnt_shiping_out_late bigint          &lt;br&gt;cnt_out_delivered bigint             &lt;br&gt;cnt_out_delivered_late bigint        &lt;br&gt;cnt_internal_unknown bigint          &lt;br&gt;cnt_internal_unknown_code bigint     &lt;br&gt;cnt_internal_unknown_index bigint    &lt;br&gt;cnt_shiping_internal_intime bigint   &lt;br&gt;cnt_shiping_internal_late bigint     &lt;br&gt;cnt_internal_delivered bigint        &lt;br&gt;cnt_internal_delivered_late bigint&lt;br&gt;year int&lt;br&gt;&lt;/pre&gt;&lt;pre&gt;   &lt;/pre&gt;&lt;/pre&gt;" style="verticalAlign=top;align=left;overflow=fill;fontSize=12;fontFamily=Helvetica;html=1;strokeColor=#003366;shadow=1;fillColor=#D4E1F5;fontColor=#003366" vertex="1" parent="1">
          <mxGeometry x="340" y="1700" width="260" height="590" as="geometry" />
        </mxCell>
        <mxCell id="j2kU0Gm-pKW_zPL6ewER-137" value="Use" style="endArrow=open;endSize=12;dashed=1;html=1;exitX=0.46;exitY=1.004;exitDx=0;exitDy=0;exitPerimeter=0;entryX=0.5;entryY=0;entryDx=0;entryDy=0;" edge="1" parent="1" source="19" target="j2kU0Gm-pKW_zPL6ewER-136">
          <mxGeometry width="160" relative="1" as="geometry">
            <mxPoint x="470" y="1500" as="sourcePoint" />
            <mxPoint x="630" y="1500" as="targetPoint" />
          </mxGeometry>
        </mxCell>
        <mxCell id="j2kU0Gm-pKW_zPL6ewER-138" value="&lt;pre&gt;&lt;pre style=&quot;text-align: center&quot;&gt;&lt;b&gt;ends_full_report_kpi_macroregion&lt;/b&gt;&lt;br&gt;&lt;/pre&gt;&lt;/pre&gt;&lt;hr&gt;&lt;pre&gt;&lt;pre&gt;&lt;pre&gt;country_code string              &lt;br&gt;macroregion_code string          &lt;br&gt;macroregion_name string          &lt;br&gt;mail_type int                    &lt;br&gt;mail_ctg int                     &lt;br&gt;kpp string                       &lt;br&gt;inn string                       &lt;br&gt;date string                      &lt;br&gt;delivery_deadline string         &lt;br&gt;srm int                          &lt;br&gt;cpacket int                      &lt;br&gt;plus500 boolean                  &lt;br&gt;dti string                       &lt;br&gt;direction string                 &lt;br&gt;cnt_in bigint                    &lt;br&gt;cnt_out bigint                   &lt;br&gt;cnt_internal bigint              &lt;br&gt;cnt_in_unknown bigint            &lt;br&gt;cnt_in_unknown_code bigint       &lt;br&gt;cnt_in_unknown_index bigint      &lt;br&gt;cnt_in_delivered bigint          &lt;br&gt;cnt_shiping_in_intime bigint     &lt;br&gt;cnt_shiping_in_late bigint       &lt;br&gt;cnt_in_delivered_late bigint     &lt;br&gt;cnt_out_unknown bigint           &lt;br&gt;cnt_out_unknown_code bigint      &lt;br&gt;cnt_out_unknown_index bigint     &lt;br&gt;cnt_shiping_out_intime bigint    &lt;br&gt;cnt_shiping_out_late bigint      &lt;br&gt;cnt_out_delivered bigint         &lt;br&gt;cnt_out_delivered_late bigint    &lt;br&gt;cnt_internal_unknown bigint      &lt;br&gt;cnt_internal_unknown_code bigint &lt;br&gt;cnt_internal_unknown_index bigint&lt;br&gt;cnt_shiping_internal_intime bigint&lt;br&gt;cnt_shiping_internal_late bigint &lt;br&gt;cnt_internal_delivered bigint    &lt;br&gt;cnt_internal_delivered_late bigint&lt;br&gt;year int&lt;br&gt;&lt;/pre&gt;&lt;/pre&gt;&lt;/pre&gt;" style="verticalAlign=top;align=left;overflow=fill;fontSize=12;fontFamily=Helvetica;html=1;strokeColor=#003366;shadow=1;fillColor=#D4E1F5;fontColor=#003366" vertex="1" parent="1">
          <mxGeometry x="650" y="1700" width="290" height="610" as="geometry" />
        </mxCell>
        <mxCell id="j2kU0Gm-pKW_zPL6ewER-139" value="&lt;pre&gt;&lt;pre style=&quot;text-align: center&quot;&gt;&lt;pre&gt;&lt;b&gt;ends_full_report_kpi_ufps&lt;/b&gt;&lt;/pre&gt;&lt;/pre&gt;&lt;/pre&gt;&lt;hr&gt;&lt;pre&gt;&lt;pre&gt;&lt;pre&gt;country_code string              &lt;br&gt;macroregion_code string          &lt;br&gt;ufps_index int                   &lt;br&gt;ufps string                      &lt;br&gt;ufps_index_to int                &lt;br&gt;ufps_to string                   &lt;br&gt;ufps_index_from int              &lt;br&gt;ufps_from string                 &lt;br&gt;mail_type int                    &lt;br&gt;mail_ctg int                     &lt;br&gt;kpp string                       &lt;br&gt;inn string                       &lt;br&gt;date string                      &lt;br&gt;delivery_deadline string         &lt;br&gt;srm int                          &lt;br&gt;cpacket int                      &lt;br&gt;plus500 boolean                  &lt;br&gt;dti string                       &lt;br&gt;direction string                 &lt;br&gt;cnt_in bigint                    &lt;br&gt;cnt_out bigint                   &lt;br&gt;cnt_internal bigint              &lt;br&gt;cnt_in_unknown bigint            &lt;br&gt;cnt_in_unknown_code bigint       &lt;br&gt;cnt_in_unknown_index bigint      &lt;br&gt;cnt_in_delivered bigint          &lt;br&gt;cnt_shiping_in_intime bigint     &lt;br&gt;cnt_shiping_in_late bigint       &lt;br&gt;cnt_in_delivered_late bigint     &lt;br&gt;cnt_out_unknown bigint           &lt;br&gt;cnt_out_unknown_code bigint      &lt;br&gt;cnt_out_unknown_index bigint     &lt;br&gt;cnt_shiping_out_intime bigint    &lt;br&gt;cnt_shiping_out_late bigint      &lt;br&gt;cnt_out_delivered bigint         &lt;br&gt;cnt_out_delivered_late bigint    &lt;br&gt;cnt_internal_unknown bigint      &lt;br&gt;cnt_internal_unknown_code bigint &lt;br&gt;cnt_internal_unknown_index bigint&lt;br&gt;cnt_shiping_internal_intime bigint&lt;br&gt;cnt_shiping_internal_late bigint &lt;br&gt;cnt_internal_delivered bigint    &lt;br&gt;cnt_internal_delivered_late bigint&lt;br&gt;year int&lt;br&gt;&lt;/pre&gt;&lt;/pre&gt;&lt;/pre&gt;" style="verticalAlign=top;align=left;overflow=fill;fontSize=12;fontFamily=Helvetica;html=1;strokeColor=#003366;shadow=1;fillColor=#D4E1F5;fontColor=#003366" vertex="1" parent="1">
          <mxGeometry x="1000" y="1700" width="290" height="680" as="geometry" />
        </mxCell>
        <mxCell id="j2kU0Gm-pKW_zPL6ewER-140" value="&lt;pre&gt;&lt;pre style=&quot;text-align: center&quot;&gt;&lt;pre&gt;&lt;pre&gt;&lt;b&gt;ends_full_report_kpi_post_office&lt;/b&gt;&lt;/pre&gt;&lt;/pre&gt;&lt;/pre&gt;&lt;/pre&gt;&lt;hr&gt;&lt;pre&gt;&lt;pre&gt;&lt;pre&gt;country_code string              &lt;br&gt;macroregion_code string          &lt;br&gt;ufps_index int                   &lt;br&gt;ufps string                      &lt;br&gt;post_office_index int            &lt;br&gt;post_office string               &lt;br&gt;mail_type int                    &lt;br&gt;mail_ctg int                     &lt;br&gt;kpp string                       &lt;br&gt;inn string                       &lt;br&gt;date string                      &lt;br&gt;delivery_deadline string         &lt;br&gt;srm int                          &lt;br&gt;cpacket int                      &lt;br&gt;plus500 boolean                  &lt;br&gt;dti string                       &lt;br&gt;direction string                 &lt;br&gt;cnt_in bigint                    &lt;br&gt;cnt_out bigint                   &lt;br&gt;cnt_internal bigint              &lt;br&gt;cnt_in_unknown bigint            &lt;br&gt;cnt_in_unknown_code bigint       &lt;br&gt;cnt_in_unknown_index bigint      &lt;br&gt;cnt_in_delivered bigint          &lt;br&gt;cnt_shiping_in_intime bigint     &lt;br&gt;cnt_shiping_in_late bigint       &lt;br&gt;cnt_in_delivered_late bigint     &lt;br&gt;cnt_out_unknown bigint           &lt;br&gt;cnt_out_unknown_code bigint      &lt;br&gt;cnt_out_unknown_index bigint     &lt;br&gt;cnt_shiping_out_intime bigint    &lt;br&gt;cnt_shiping_out_late bigint      &lt;br&gt;cnt_out_delivered bigint         &lt;br&gt;cnt_out_delivered_late bigint    &lt;br&gt;cnt_internal_unknown bigint      &lt;br&gt;cnt_internal_unknown_code bigint &lt;br&gt;cnt_internal_unknown_index bigint&lt;br&gt;cnt_shiping_internal_intime bigint&lt;br&gt;cnt_shiping_internal_late bigint &lt;br&gt;cnt_internal_delivered bigint    &lt;br&gt;cnt_internal_delivered_late bigint&lt;br&gt;year int&lt;br&gt;&lt;/pre&gt;&lt;/pre&gt;&lt;/pre&gt;" style="verticalAlign=top;align=left;overflow=fill;fontSize=12;fontFamily=Helvetica;html=1;strokeColor=#003366;shadow=1;fillColor=#D4E1F5;fontColor=#003366" vertex="1" parent="1">
          <mxGeometry x="1350" y="1700" width="290" height="650" as="geometry" />
        </mxCell>
        <mxCell id="j2kU0Gm-pKW_zPL6ewER-141" value="&lt;pre&gt;&lt;pre style=&quot;text-align: center&quot;&gt;&lt;pre&gt;&lt;pre&gt;&lt;pre&gt;&lt;b&gt;ends_full_report_kpi_index&lt;/b&gt;&lt;/pre&gt;&lt;/pre&gt;&lt;/pre&gt;&lt;/pre&gt;&lt;/pre&gt;&lt;hr&gt;&lt;pre&gt;&lt;pre&gt;&lt;pre&gt;country_code string              &lt;br&gt;macroregion_code string          &lt;br&gt;ufps_index int                   &lt;br&gt;ufps string                      &lt;br&gt;post_office_index int            &lt;br&gt;post_office string               &lt;br&gt;index string                     &lt;br&gt;ops string                       &lt;br&gt;mail_type int                    &lt;br&gt;mail_ctg int                     &lt;br&gt;kpp string                       &lt;br&gt;inn string                       &lt;br&gt;date string                      &lt;br&gt;delivery_deadline string         &lt;br&gt;srm int                          &lt;br&gt;cpacket int                      &lt;br&gt;plus500 boolean                  &lt;br&gt;dti string                       &lt;br&gt;direction string                 &lt;br&gt;cnt_in bigint                    &lt;br&gt;cnt_out bigint                   &lt;br&gt;cnt_internal bigint              &lt;br&gt;cnt_in_unknown bigint            &lt;br&gt;cnt_in_unknown_code bigint       &lt;br&gt;cnt_in_unknown_index bigint      &lt;br&gt;cnt_in_delivered bigint          &lt;br&gt;cnt_shiping_in_intime bigint     &lt;br&gt;cnt_shiping_in_late bigint       &lt;br&gt;cnt_in_delivered_late bigint     &lt;br&gt;cnt_out_unknown bigint           &lt;br&gt;cnt_out_unknown_code bigint      &lt;br&gt;cnt_out_unknown_index bigint     &lt;br&gt;cnt_shiping_out_intime bigint    &lt;br&gt;cnt_shiping_out_late bigint      &lt;br&gt;cnt_out_delivered bigint         &lt;br&gt;cnt_out_delivered_late bigint    &lt;br&gt;cnt_internal_unknown bigint      &lt;br&gt;cnt_internal_unknown_code bigint &lt;br&gt;cnt_internal_unknown_index bigint&lt;br&gt;cnt_shiping_internal_intime bigint&lt;br&gt;cnt_shiping_internal_late bigint &lt;br&gt;cnt_internal_delivered bigint    &lt;br&gt;cnt_internal_delivered_late bigint&lt;br&gt;year int&lt;br&gt;&lt;/pre&gt;&lt;/pre&gt;&lt;/pre&gt;" style="verticalAlign=top;align=left;overflow=fill;fontSize=12;fontFamily=Helvetica;html=1;strokeColor=#003366;shadow=1;fillColor=#D4E1F5;fontColor=#003366" vertex="1" parent="1">
          <mxGeometry x="1690" y="1700" width="290" height="680" as="geometry" />
        </mxCell>
        <mxCell id="j2kU0Gm-pKW_zPL6ewER-142" value="Use" style="endArrow=open;endSize=12;dashed=1;html=1;exitX=0.5;exitY=1;exitDx=0;exitDy=0;entryX=0.5;entryY=0;entryDx=0;entryDy=0;" edge="1" parent="1" source="j2kU0Gm-pKW_zPL6ewER-126" target="j2kU0Gm-pKW_zPL6ewER-138">
          <mxGeometry width="160" relative="1" as="geometry">
            <mxPoint x="479.60000000000014" y="1422.36" as="sourcePoint" />
            <mxPoint x="480" y="1710" as="targetPoint" />
          </mxGeometry>
        </mxCell>
        <mxCell id="j2kU0Gm-pKW_zPL6ewER-143" value="Use" style="endArrow=open;endSize=12;dashed=1;html=1;exitX=0.5;exitY=1;exitDx=0;exitDy=0;entryX=0.5;entryY=0;entryDx=0;entryDy=0;" edge="1" parent="1" source="j2kU0Gm-pKW_zPL6ewER-128" target="j2kU0Gm-pKW_zPL6ewER-139">
          <mxGeometry width="160" relative="1" as="geometry">
            <mxPoint x="805" y="1440" as="sourcePoint" />
            <mxPoint x="805" y="1710" as="targetPoint" />
          </mxGeometry>
        </mxCell>
        <mxCell id="j2kU0Gm-pKW_zPL6ewER-144" value="Use" style="endArrow=open;endSize=12;dashed=1;html=1;entryX=0.5;entryY=0;entryDx=0;entryDy=0;exitX=0.5;exitY=1;exitDx=0;exitDy=0;" edge="1" parent="1" source="j2kU0Gm-pKW_zPL6ewER-130" target="j2kU0Gm-pKW_zPL6ewER-140">
          <mxGeometry width="160" relative="1" as="geometry">
            <mxPoint x="1460" y="1510" as="sourcePoint" />
            <mxPoint x="1490" y="1740" as="targetPoint" />
          </mxGeometry>
        </mxCell>
        <mxCell id="j2kU0Gm-pKW_zPL6ewER-145" value="Use" style="endArrow=open;endSize=12;dashed=1;html=1;exitX=0.5;exitY=1;exitDx=0;exitDy=0;entryX=0.5;entryY=0;entryDx=0;entryDy=0;" edge="1" parent="1" source="j2kU0Gm-pKW_zPL6ewER-131" target="j2kU0Gm-pKW_zPL6ewER-141">
          <mxGeometry width="160" relative="1" as="geometry">
            <mxPoint x="1834.4099999999999" y="1520" as="sourcePoint" />
            <mxPoint x="1834.4099999999999" y="1790" as="targetPoint" />
          </mxGeometry>
        </mxCell>
      </root>
    </mxGraphModel>
  </diagram>
</mxfile>
